<svg id="Layer_1" data-name="Layer 1" xmlns="http://www.w3.org/2000/svg" width="179.36mm" height="204.98mm" viewBox="0 0 508.41 581.05">
  <defs>
    <style>
      .cls-1, .cls-2 {
        fill: #010101;
      }

      .cls-1 {
        stroke: #231f20;
        stroke-miterlimit: 10;
      }
    </style>
  </defs>
  <title>LOGO</title>
  <g>
    <path class="cls-1" d="M127.85,231.49H258v-76.8h106.1v76.7H441v69.8h-27.7v-41.6h-77.1v-76.9h-49.9v76.8H155.65v177.7c0,2.2.6,2.8,2.8,2.8,12.5-.1,24.9,0,37.3,0,19.2.1,38.4.3,57.6.4,7.4.1,14.8.3,22.2.3a2.46,2.46,0,0,1,2.5,1.7c10.6,21.4,21.1,42.8,31.8,64.2a27.33,27.33,0,0,1,1.3,2.5l7.1-14.6,25.5-52.5a3.5,3.5,0,0,1,3.7-2.3c38.5.1,76.9.1,115.4,0,4.1,0,3.5.5,3.5-3.6v-84.7h28v89.9c0,13.7-8.7,24-22.2,26.3a29.78,29.78,0,0,1-5.2.2H363.65c-2.1,0-3,.6-3.8,2.5q-14.85,32.25-29.8,64.3a95.93,95.93,0,0,1-7.4,13.3c-6.1,9.1-17.4,9.3-23.6.3-3-4.4-5.2-9.4-7.5-14.3q-15-31.95-29.7-64.1a3,3,0,0,0-3.2-2c-34.8,0-69.6-.1-104.4.1-12.8.1-23-8.3-25.7-19.1a28,28,0,0,1-.8-6.4V233.79C127.75,233.19,127.85,232.49,127.85,231.49Z" transform="translate(-51.36 -100.59)"/>
    <path class="cls-1" d="M258,414.59v-76.9h-76.8V271h27.7v38.5h77.3v76.9h49.9v-76.7h130.4V132.09c0-2.9,0-2.9-3-2.9H155.75v87.1h-27.9c0-.7-.1-1.5-.1-2.3v-87.3a25.54,25.54,0,0,1,25.4-25.6h315.9a25.64,25.64,0,0,1,25.5,25v211.3H364.15v77.1Z" transform="translate(-51.36 -100.59)"/>
  </g>
  <g>
    <path class="cls-2" d="M51.36,678l6.1-1.3a3,3,0,0,0,1.61-1,2.74,2.74,0,0,0,.65-1.82V620.48a2.82,2.82,0,0,0-.65-1.87,3,3,0,0,0-1.61-1l-6.1-1.24V614.1H75.65a48.24,48.24,0,0,1,8.59.67,28,28,0,0,1,6.36,1.85A16.67,16.67,0,0,1,95,619.36a13.24,13.24,0,0,1,2.78,3.38,13,13,0,0,1,1.44,3.81,19.19,19.19,0,0,1,.41,4,17.14,17.14,0,0,1-1.46,7.24,19,19,0,0,1-3.7,5.43,20.44,20.44,0,0,1-4.87,3.67,21.81,21.81,0,0,1-4.94,2l18.19,24a14.79,14.79,0,0,0,1,1.23,16.2,16.2,0,0,0,1.3,1.2,12.13,12.13,0,0,0,1.37,1,4.83,4.83,0,0,0,1.32.55l5.37,1.2v2.25H103.16a16.15,16.15,0,0,1-3.58-.33,7.3,7.3,0,0,1-2.47-1.08,9.52,9.52,0,0,1-2-1.87c-.59-.76-1.27-1.66-2-2.72l-17-23.47-7.77-1.49v24.58a2.88,2.88,0,0,0,.55,1.82,2.84,2.84,0,0,0,1.51,1l7.1,1.3v2.25H51.36Zm17-31.68a11.11,11.11,0,0,0,1.48.24c.64.06,1.33.12,2.07.16s1.44.09,2.13.1,1.26,0,1.71,0a15.87,15.87,0,0,0,6.5-1.22,13.59,13.59,0,0,0,4.59-3.24,13.36,13.36,0,0,0,2.73-4.66,16.63,16.63,0,0,0,.91-5.51,18.67,18.67,0,0,0-1-6.61,11.49,11.49,0,0,0-3.05-4.53,12.49,12.49,0,0,0-4.92-2.62,24.23,24.23,0,0,0-6.67-.84H68.36Z" transform="translate(-51.36 -100.59)"/>
    <path class="cls-2" d="M114.83,678l6.1-1.3a2.94,2.94,0,0,0,1.6-1,2.69,2.69,0,0,0,.65-1.82V620.48a2.77,2.77,0,0,0-.65-1.87,3,3,0,0,0-1.6-1l-6.1-1.24V614.1h25.34v2.26l-6,1.24a3.16,3.16,0,0,0-1.64,1,2.82,2.82,0,0,0-.67,1.85v53.38a2.73,2.73,0,0,0,.65,1.85,3.09,3.09,0,0,0,1.66,1l6,1.3v2.25H114.83Z" transform="translate(-51.36 -100.59)"/>
    <path class="cls-2" d="M142.44,678l4.13-1.2a3.83,3.83,0,0,0,1.7-1.08A5.41,5.41,0,0,0,149.4,674l19.06-49.83,5.81-11h1.87L199.66,674a5.41,5.41,0,0,0,1.13,1.75,3.83,3.83,0,0,0,1.7,1.08l4.13,1.2v2.25H183.24V678l8.35-1.59-8-20.73H160.39L153,676.21l8.16,1.78v2.25H142.44Zm39.7-26-7.87-20.26-2.4-6.48h-.05L161.88,652Z" transform="translate(-51.36 -100.59)"/>
    <path class="cls-2" d="M208.93,678l6.1-1.59a3,3,0,0,0,1.61-1,2.78,2.78,0,0,0,.64-1.8V620.48a2.81,2.81,0,0,0-.64-1.87,3.06,3.06,0,0,0-1.61-1l-6.1-1.24V614.1h19.68L244,656.77l3.36,9.79,19-52.46h19.49v2.26l-6.1,1.24a3,3,0,0,0-1.61,1,2.85,2.85,0,0,0-.64,1.85v53.38a2.72,2.72,0,0,0,.64,1.85,3.14,3.14,0,0,0,1.61,1l6.1,1.3v2.25H260.44V678l6.09-1.3a3,3,0,0,0,1.61-1,2.74,2.74,0,0,0,.65-1.82V618.71L266.24,626,250.6,669.25l-5,11h-2L224.05,626.1l-2.64-7.49v55a2.73,2.73,0,0,0,.65,1.85,3,3,0,0,0,1.61,1l6.09,1.59v2.25H208.93Z" transform="translate(-51.36 -100.59)"/>
    <path class="cls-2" d="M376.33,667.33v4a57.25,57.25,0,0,1-4.56,3.48,45.24,45.24,0,0,1-5.64,3.32,38.66,38.66,0,0,1-6.45,2.49,24.92,24.92,0,0,1-7,1,34.39,34.39,0,0,1-13.07-2.37,27.7,27.7,0,0,1-10-6.82,30.19,30.19,0,0,1-6.36-10.8,43,43,0,0,1-2.24-14.32,39.29,39.29,0,0,1,2.43-14.07,32.75,32.75,0,0,1,6.69-10.94,30.1,30.1,0,0,1,10.06-7.08,31.09,31.09,0,0,1,12.55-2.52A45.18,45.18,0,0,1,358,613q2.82.35,5.66.87t5.42,1.2c1.73.45,3.24.89,4.52,1.34v15.31h-2.55l-3.07-8.4a2.54,2.54,0,0,0-.77-1.34,8.68,8.68,0,0,0-1.2-.82,30.12,30.12,0,0,0-3.45-1.63,41.59,41.59,0,0,0-4-1.37,34.91,34.91,0,0,0-4.24-.93,25.87,25.87,0,0,0-4.11-.34,17.34,17.34,0,0,0-7.87,1.8,16.89,16.89,0,0,0-6.19,5.4,27.3,27.3,0,0,0-4,9,49.19,49.19,0,0,0-1.44,12.6q0,15,6.38,22.56t18.29,7.54a26.68,26.68,0,0,0,7-.84,28.47,28.47,0,0,0,5.51-2.11,25.67,25.67,0,0,0,4.3-2.76c1.23-1,2.34-1.92,3.34-2.79Z" transform="translate(-51.36 -100.59)"/>
    <path class="cls-2" d="M377.69,678l4.13-1.2a3.89,3.89,0,0,0,1.7-1.08,5.77,5.77,0,0,0,1.13-1.75l19.05-49.83,5.81-11h1.87L434.9,674a5.58,5.58,0,0,0,1.13,1.75,3.86,3.86,0,0,0,1.71,1.08l4.12,1.2v2.25H418.49V678l8.35-1.59-8-20.73H395.64l-7.44,20.54,8.16,1.78v2.25H377.69Zm39.69-26-7.87-20.26-2.4-6.48h-.05L397.13,652Z" transform="translate(-51.36 -100.59)"/>
    <path class="cls-2" d="M444.18,678l6.09-1.3a3,3,0,0,0,1.61-1,2.74,2.74,0,0,0,.65-1.82V620.48a2.82,2.82,0,0,0-.65-1.87,3,3,0,0,0-1.61-1l-6.09-1.24V614.1h24.29a48.4,48.4,0,0,1,8.59.67,28.3,28.3,0,0,1,6.36,1.85,16.61,16.61,0,0,1,4.41,2.74,13.29,13.29,0,0,1,2.79,3.38,13,13,0,0,1,1.44,3.81,19.9,19.9,0,0,1,.41,4,17,17,0,0,1-1.47,7.24,18.92,18.92,0,0,1-3.69,5.43,20.49,20.49,0,0,1-4.88,3.67,21.63,21.63,0,0,1-4.94,2l18.19,24a13.32,13.32,0,0,0,1.06,1.23,16.09,16.09,0,0,0,1.29,1.2,13.1,13.1,0,0,0,1.37,1,5.1,5.1,0,0,0,1.32.55l5.38,1.2v2.25H496a16.21,16.21,0,0,1-3.58-.33,7.39,7.39,0,0,1-2.47-1.08A9.48,9.48,0,0,1,488,677c-.59-.76-1.27-1.66-2-2.72l-17-23.47-7.78-1.49v24.58a2.76,2.76,0,0,0,2.06,2.83l7.11,1.3v2.25H444.18Zm17-31.68a11.31,11.31,0,0,0,1.49.24c.64.06,1.33.12,2.06.16s1.45.09,2.14.1,1.25,0,1.7,0a15.89,15.89,0,0,0,6.51-1.22,13.54,13.54,0,0,0,4.58-3.24,13.24,13.24,0,0,0,2.74-4.66,16.89,16.89,0,0,0,.91-5.51,18.44,18.44,0,0,0-1.06-6.61,11.38,11.38,0,0,0-3.05-4.53,12.36,12.36,0,0,0-4.92-2.62,24.18,24.18,0,0,0-6.67-.84h-6.43Z" transform="translate(-51.36 -100.59)"/>
    <path class="cls-2" d="M507.64,678l6.1-1.3a3,3,0,0,0,1.61-1,2.74,2.74,0,0,0,.65-1.82V620.48a2.82,2.82,0,0,0-.65-1.87,3,3,0,0,0-1.61-1l-6.1-1.24V614.1h48.2v15.5h-2.69l-3.41-10.22a3.32,3.32,0,0,0-.67-1.2,1.66,1.66,0,0,0-1.3-.48H524.64V644H539.8a1.93,1.93,0,0,0,1.4-.44,2.93,2.93,0,0,0,.67-1.1l2.73-7.87H547v22.51H544.6l-2.73-7.78a3.16,3.16,0,0,0-.67-1.22,1.88,1.88,0,0,0-1.4-.46H524.64v29H551.9a1.72,1.72,0,0,0,1.3-.45,3.23,3.23,0,0,0,.67-1.22l3.21-11.57h2.69v16.89H507.64Z" transform="translate(-51.36 -100.59)"/>
  </g>
</svg>
